HIERARCHY
ROOT Hips
{
  OFFSET 0 89.5177 0.535
  CHANNELS 6 Xposition Yposition Zposition Zrotation Xrotation Yrotation
  JOINT Spine
  {
    OFFSET 12.0259 -0.162855 1.69034e-005
    CHANNELS 3 Zrotation Xrotation Yrotation
    JOINT Spine1
    {
      OFFSET 15.3169 -0.0121922 0
      CHANNELS 3 Zrotation Xrotation Yrotation
      JOINT Spine2
      {
        OFFSET 15.3176 -0.0121908 0
        CHANNELS 3 Zrotation Xrotation Yrotation
        JOINT Neck
        {
          OFFSET 19.9142 1.56338 0
          CHANNELS 3 Zrotation Xrotation Yrotation
          JOINT Head
          {
            OFFSET 6.92651 0 0
            CHANNELS 3 Zrotation Xrotation Yrotation
            End Site
            {
              OFFSET 20.7666 0 0
            }
          }
          JOINT LeftShoulder
          {
            OFFSET -6.20654 0.708824 7.28219
            CHANNELS 3 Zrotation Xrotation Yrotation
            JOINT LeftArm
            {
              OFFSET 14.108 0 -1.52588e-005
              CHANNELS 3 Zrotation Xrotation Yrotation
              JOINT LeftForeArm
              {
                OFFSET 28.5802 0 0
                CHANNELS 3 Zrotation Xrotation Yrotation
                JOINT LeftHand
                {
                  OFFSET 27.092 0 0
                  CHANNELS 3 Zrotation Xrotation Yrotation
                  End Site
                  {
                    OFFSET 9.55928 -0.186424 0.145352
                  }
                }
              }
            }
          }
          JOINT RightShoulder
          {
            OFFSET -6.20654 0.708866 -7.28218
            CHANNELS 3 Zrotation Xrotation Yrotation
            JOINT RightArm
            {
              OFFSET 14.108 0 1.52588e-005
              CHANNELS 3 Zrotation Xrotation Yrotation
              JOINT RightForeArm
              {
                OFFSET 28.5802 0 0
                CHANNELS 3 Zrotation Xrotation Yrotation
                JOINT RightHand
                {
                  OFFSET 27.092 0 0
                  CHANNELS 3 Zrotation Xrotation Yrotation
                  End Site
                  {
                    OFFSET 9.55929 -0.186417 -0.145354
                  }
                }
              }
            }
          }
        }
      }
    }
  }
  JOINT LeftUpLeg
  {
    OFFSET 0.005 -0.535 8.837
    CHANNELS 3 Zrotation Xrotation Yrotation
    JOINT LeftLeg
    {
      OFFSET 39.9035 0 0
      CHANNELS 3 Zrotation Xrotation Yrotation
      JOINT LeftFoot
      {
        OFFSET 39.6689 0 0
        CHANNELS 3 Zrotation Xrotation Yrotation
        JOINT LeftToe
        {
          OFFSET 10.1624 13.6296 0
          CHANNELS 3 Zrotation Xrotation Yrotation
          End Site
          {
            OFFSET 8.38147 0 0
          }
        }
      }
    }
  }
  JOINT RightUpLeg
  {
    OFFSET 0.005 -0.535 -8.837
    CHANNELS 3 Zrotation Xrotation Yrotation
    JOINT RightLeg
    {
      OFFSET 39.9035 0 0
      CHANNELS 3 Zrotation Xrotation Yrotation
      JOINT RightFoot
      {
        OFFSET 39.6689 0 0
        CHANNELS 3 Zrotation Xrotation Yrotation
        JOINT RightToe
        {
          OFFSET 10.1624 13.6296 0
          CHANNELS 3 Zrotation Xrotation Yrotation
          End Site
          {
            OFFSET 8.38147 0 0
          }
        }
      }
    }
  }
}
MOTION
Frames:	14
Frame Time:	0.0333333
341.244 88.3814 70.7284 -80.5179 -0.973865 -175.786 5.34755 1.25612 -0.566142 10.7109 2.45442 -1.24727 10.7109 2.45441 -1.24728 -8.29975e-012 -9.0191e-006 -5.27751e-005 -1.42982 -11.3683 4.84238 179.804 0.630724 -72.7069 -3.9691 7.76358 64.2104 -35.9263 7.95139e-016 -1.59028e-015 -55.5283 -45.4767 -52.3729 -179.702 1.30916 77.1882 -40.7262 23.7036 -38.3508 -16.146 -6.36111e-015 2.78299e-015 -34.2578 27.7239 28.2884 -16.601 13.6478 -173.587 -39.8956 0 4.47266e-016 3.66459 8.5387 -17.8916 90 0 1.59028e-015 9.85517 -14.8663 176.561 -16.1008 0 -0 17.4506 -2.26322 -0.333897 90 -9.70628e-020 3.18055e-015 
341.595 88.4456 69.87 -81.0244 0.154474 -176.02 5.21799 1.41659 -0.669726 10.4568 2.76676 -1.46613 10.4568 2.76675 -1.46613 -8.30728e-012 -9.0191e-006 -5.27751e-005 -1.65078 -12.3571 6.32826 179.766 0.755335 -72.7907 -4.27712 8.08022 64.9287 -35.7057 7.95139e-016 7.95139e-016 -56.9541 -44.2036 -53.4165 -179.591 1.94309 78.1092 -41.6822 27.1798 -38.3509 -12.8102 9.54166e-015 -0 -34.1674 25.073 26.5673 -12.262 8.64521 -174.888 -30.7691 -3.18055e-015 -0 3.47215 5.91305 -12.8837 90 0 2.38542e-015 9.7439 -13.9705 175.992 -15.3925 1.59028e-015 -0 17.0847 -2.44623 0.349256 90 -2.42657e-020 3.18055e-015 
342.251 88.3411 69.0044 -81.4331 1.5313 -176.805 5.0107 1.56228 -0.6438 10.044 3.06271 -1.42235 10.044 3.06271 -1.42236 -8.31322e-012 -9.0191e-006 -5.27751e-005 -1.50278 -12.489 7.01309 179.897 0.332102 -72.819 -2.92558 7.6685 65.4738 -35.3017 -3.97569e-016 7.95139e-016 -57.3935 -44.1364 -53.9118 -179.576 2.08136 78.4861 -41.3604 29.1028 -38.5098 -12.327 0 -0 -33.3667 23.1888 25.1686 -7.64097 5.34507 -175.144 -21.976 -1.59028e-015 2.38542e-015 2.93987 3.96441 -8.58292 90 -3.97569e-016 -0 9.8433 -13.0071 175.873 -15.0438 -3.18056e-015 -3.97569e-016 17.0908 -2.81378 1.11012 90 -4.85314e-020 3.18055e-015 
343.048 88.1943 68.0257 -81.891 2.936 -177.071 4.74145 1.55494 -0.69796 9.50656 3.04719 -1.52286 9.50656 3.04719 -1.52287 -8.30936e-012 -9.0191e-006 -5.27751e-005 -1.28536 -11.8217 7.42589 -179.904 -0.308081 -72.6935 -1.71018 7.78646 65.6535 -35.1142 -1.19271e-015 7.95139e-016 -56.6472 -44.5057 -53.2481 -179.532 2.2743 78.375 -39.9666 31.4002 -39.4779 -12.8673 3.18055e-015 2.38542e-015 -34.0138 23.6923 25.9439 -4.09612 6.61757 -175.37 -16.0322 -1.59028e-015 1.59028e-015 2.85511 4.16673 -8.72551 90 7.95139e-016 -0 9.43521 -11.7798 175.046 -15.5509 0 -0 17.6254 -3.0038 1.98034 90 0 1.59028e-015 
343.711 88.28 66.7641 -82.5701 3.65385 -175.521 4.59149 1.25883 -1.10592 9.20953 2.4253 -2.30977 9.20953 2.4253 -2.30978 -8.30926e-012 -9.0191e-006 -5.27751e-005 -2.30133 -10.9998 8.54075 -179.773 -0.703608 -72.1116 -1.32913 7.90735 64.8205 -34.9651 -7.95139e-016 -0 -56.4447 -44.9207 -53.206 -179.442 2.54023 77.6158 -36.1761 34.6964 -42.0878 -15.6691 3.18055e-015 2.38542e-015 -34.8967 24.9294 27.3054 -3.35252 10.7288 -177.31 -14.6286 -1.59028e-015 3.18055e-015 3.86324 5.98714 -11.626 90 0 -7.95139e-016 8.38629 -11.3242 172.34 -16.0793 1.59028e-015 -1.98785e-016 18.123 -2.92793 3.02798 90 0 -1.59028e-015 
344.149 88.3903 65.4528 -83.305 2.97244 -173.83 4.52785 0.763738 -1.50755 9.07526 1.4063 -3.07094 9.07526 1.4063 -3.07095 -8.30921e-012 -9.0191e-006 -5.27751e-005 -4.25377 -10.7722 9.97969 -179.954 -0.143809 -72.1608 -1.35879 8.11819 63.9475 -34.521 -7.95139e-016 -7.95139e-016 -56.0902 -45.0555 -52.8678 -179.312 2.99157 77.0462 -33.0612 34.6181 -44.7622 -21.0296 -3.18055e-015 -7.95139e-016 -37.5924 30.6114 32.5407 -3.82616 12.1756 -179.533 -15.063 -1.59028e-015 -7.95139e-016 4.28973 7.12599 -13.646 90 1.59028e-015 7.95139e-016 7.36886 -12.4742 169.712 -16.0815 1.59028e-015 2.98177e-016 18.3151 -2.95362 4.10425 90 1.21329e-020 1.59028e-015 
344.584 88.3589 64.1622 -83.132 2.09991 -173.408 4.65275 0.35859 -1.60094 9.31389 0.586495 -3.22564 9.31389 0.586494 -3.22565 -8.3049e-012 -9.0191e-006 -5.27751e-005 -6.73029 -11.2282 10.3063 179.752 0.797695 -72.7422 -2.01406 8.29682 63.4402 -33.95 0 1.59028e-015 -55.0237 -45.2087 -51.8301 -179.207 3.36933 76.7508 -30.7312 32.1802 -46.7154 -27.2705 -6.36111e-015 -0 -40.2522 35.66 37.6142 -4.30445 12.0601 179.442 -16.8496 -3.18055e-015 -1.19271e-015 5.12122 7.50801 -14.1093 90 1.59028e-015 3.97569e-016 6.26093 -13.8366 167.991 -18.2668 3.18056e-015 2.36057e-015 18.7597 -3.45774 5.21559 90 -2.48481e-017 -3.18055e-015 
345.085 88.3327 62.9362 -82.3214 2.60533 -173.715 4.93201 0.277875 -1.54198 9.86981 0.422551 -3.10207 9.86981 0.42255 -3.10207 -8.30585e-012 -9.0191e-006 -5.27751e-005 -9.16504 -12.0875 9.83006 179.593 1.3308 -73.0147 -3.28482 7.89187 62.6819 -33.3346 -1.59028e-015 7.95139e-016 -53.942 -45.3432 -50.7354 -179.123 3.51844 75.9959 -29.0694 28.6214 -47.3005 -33.533 3.18055e-015 2.38542e-015 -41.5855 38.7114 40.2741 -3.64784 12.0875 178.901 -18.1441 0 -3.97569e-016 6.06319 7.22091 -12.9818 90 0 -7.95139e-016 4.15429 -13.8402 166.384 -23.5287 0 -1.09332e-015 19.1271 -4.41348 6.17372 90 0 -0 
345.555 88.3703 61.8027 -82.1398 4.07751 -174.069 5.04242 0.301603 -1.48957 10.0911 0.471513 -2.99981 10.0911 0.471512 -2.99982 -8.30275e-012 -9.0191e-006 -5.27751e-005 -10.7833 -12.3924 8.96925 179.689 1.01739 -73.0249 -4.07318 6.85633 61.7118 -33.0253 4.77083e-015 -7.95139e-016 -52.7181 -45.5848 -49.5461 -179.127 3.34165 75.3565 -27.7605 24.9129 -47.7946 -38.0641 3.18055e-015 3.97569e-015 -42.5001 39.6473 41.4075 -2.51176 12.3372 178.122 -17.6958 -3.18055e-015 -3.97569e-016 6.44241 6.27986 -10.6434 90 1.59028e-015 3.97569e-016 0.644536 -12.9121 164.691 -29.7228 0 -5.56597e-015 18.6355 -5.49446 6.87388 90 1.98785e-016 -4.77083e-015 
346.014 88.4478 60.8308 -82.2648 5.98161 -174.499 5.03916 0.334129 -1.4642 10.0854 0.538745 -2.95204 10.0854 0.538744 -2.95205 -8.30373e-012 -9.0191e-006 -5.27751e-005 -11.3312 -11.9263 8.35544 179.864 0.443575 -73.0085 -3.91808 5.72835 60.5742 -33.3904 -1.59028e-015 7.95139e-016 -53.1684 -45.6337 -50.0479 -179.131 3.20879 74.8459 -26.5759 21.7564 -48.8224 -40.3724 -3.18055e-015 -2.38542e-015 -43.3649 39.1581 41.8261 -1.69626 13.4986 177.711 -17.31 -3.18055e-015 -7.95139e-016 6.87618 5.81125 -9.42531 90 -3.18055e-015 -0 -3.38926 -11.4435 163.322 -35.9402 -6.36111e-015 -1.39149e-015 17.0514 -6.31763 7.30034 90 -7.95139e-016 3.18055e-015 
346.428 88.5597 60.0382 -82.122 7.51151 -175.302 5.0755 0.273721 -1.39635 10.1563 0.423251 -2.81136 10.1563 0.42325 -2.81137 -8.30395e-012 -9.0191e-006 -5.27751e-005 -11.2815 -11.0095 7.98502 179.953 0.153588 -73.0192 -3.22266 4.97924 59.0731 -34.429 0 -0 -54.9768 -45.6724 -51.9942 -179.09 3.23603 74.2838 -25.0067 19.4747 -50.3717 -41.1669 0 7.95139e-016 -43.5737 38.8943 41.7433 -1.02232 14.6084 177.863 -17.2543 0 -4.47266e-016 7.37754 5.60251 -8.70245 90 0 1.98785e-016 -6.79962 -10.2855 162.744 -41.1797 -3.18056e-015 2.38542e-015 14.3875 -6.45917 7.56198 90 -1.59028e-015 3.18055e-015 
346.842 88.694 59.3985 -82.0022 8.28879 -175.947 5.09415 0.0469548 -1.34908 10.188 -0.0255789 -2.69689 10.188 -0.0255797 -2.6969 -8.3065e-012 -9.0191e-006 -5.27751e-005 -10.9774 -9.87166 7.58512 179.926 0.241485 -73.0277 -2.41714 4.46524 57.173 -35.3495 -3.18055e-015 -7.95139e-016 -57.0749 -45.5284 -54.1755 -179.064 3.20157 73.7017 -22.6769 17.9285 -52.2389 -40.9119 -3.18055e-015 4.77083e-015 -43.2054 39.3735 41.6489 -0.740674 15.6146 178.164 -17.5986 1.59028e-015 6.4605e-016 7.94815 5.84967 -9.14269 90 3.18055e-015 -1.98785e-016 -9.79247 -10.4268 162.097 -44.523 0 3.18056e-015 11.3318 -5.6714 7.8931 90 -7.95139e-016 3.18055e-015 
347.262 88.7999 58.9077 -81.847 8.54415 -176.379 5.14709 -0.276906 -1.30588 10.2868 -0.669285 -2.58161 10.2868 -0.669286 -2.58162 -8.30979e-012 -9.0191e-006 -5.27751e-005 -10.867 -8.75672 7.08566 179.916 0.271482 -72.7863 -2.23944 3.95212 54.8162 -35.9706 3.18055e-015 6.36111e-015 -58.5436 -45.5901 -55.8268 -178.98 3.375 73.1724 -20.3277 16.9785 -53.8231 -39.6503 0 -1.59028e-015 -43.0029 39.8723 41.7022 -0.237966 15.8876 178.185 -17.4699 0 -9.93923e-017 8.22017 5.8366 -9.10316 90 0 -1.98785e-016 -11.9603 -11.5904 161.25 -45.0899 -3.18056e-015 -4.37326e-015 8.8344 -3.91646 8.39212 90 7.95139e-016 3.18055e-015 
347.682 88.8854 58.6064 -81.6961 8.75235 -176.859 5.20684 -0.548943 -1.2393 10.4015 -1.20748 -2.42376 10.4015 -1.20748 -2.42376 -8.30803e-012 -9.0191e-006 -5.27751e-005 -10.9377 -7.90639 6.52263 179.891 0.348247 -72.5806 -2.27414 2.94315 52.6176 -35.5885 3.18055e-015 -4.77083e-015 -58.826 -45.2274 -55.927 -178.925 3.45281 72.6891 -17.7427 16.1492 -54.8898 -37.7485 3.18055e-015 -1.59028e-015 -43.2857 39.7057 41.7815 0.467096 15.7015 178.203 -16.9111 0 -0 8.30011 5.52429 -8.38626 90 1.59028e-015 1.98785e-016 -12.5201 -13.0815 161.496 -42.3308 0 3.57812e-015 8.67338 -2.59904 6.65569 90 0 -3.18055e-015 
